<svg width="98" height="175" viewBox="0 0 98 40" fill="none" xmlns="http://www.w3.org/2000/svg">
<path d="M93.2174 2.30837C93.2174 3.58325 94.217 4.61674 95.4501 4.61674C96.6832 4.61674 97.6828 3.58325 97.6828 2.30837C97.6828 1.03349 96.6832 -4.51711e-08 95.4501 -1.00892e-07C94.217 -1.56614e-07 93.2174 1.03349 93.2174 2.30837Z" fill="#888888"/>
<path d="M69.9595 2.30837C69.9595 3.58325 70.9592 4.61674 72.1923 4.61674C73.4254 4.61674 74.4251 3.58325 74.4251 2.30837C74.4251 1.03349 73.4254 -4.51733e-08 72.1923 -1.00897e-07C70.9592 -1.56621e-07 69.9595 1.03349 69.9595 2.30837Z" fill="#888888"/>
<path d="M46.7017 2.30837C46.7017 3.58325 47.7013 4.61674 48.9344 4.61674C50.1675 4.61674 51.1672 3.58325 51.1672 2.30837C51.1672 1.03349 50.1675 -4.51721e-08 48.9344 -1.00895e-07C47.7013 -1.56617e-07 46.7017 1.03349 46.7017 2.30837Z" fill="#888888"/>
<path d="M23.4439 2.30837C23.4439 3.58325 24.4435 4.61674 25.6767 4.61674C26.9098 4.61674 27.9094 3.58325 27.9094 2.30837C27.9094 1.03349 26.9098 -4.51723e-08 25.6767 -1.00895e-07C24.4435 -1.56618e-07 23.4439 1.03349 23.4439 2.30837Z" fill="#888888"/>
<path d="M3.24026e-06 2.30837C3.18635e-06 3.58325 0.999639 4.61674 2.23275 4.61674C3.46586 4.61674 4.4655 3.58325 4.4655 2.30837C4.4655 1.03349 3.46586 -4.51721e-08 2.23275 -1.00895e-07C0.999639 -1.56617e-07 3.29416e-06 1.03349 3.24026e-06 2.30837Z" fill="#888888"/>
<path d="M93.2174 26.5464C93.2174 27.8213 94.217 28.8548 95.4501 28.8548C96.6832 28.8548 97.6828 27.8213 97.6828 26.5464C97.6828 25.2715 96.6832 24.238 95.4501 24.238C94.217 24.238 93.2174 25.2715 93.2174 26.5464Z" fill="#888888"/>
<path d="M69.9595 26.5464C69.9595 27.8213 70.9592 28.8548 72.1923 28.8548C73.4254 28.8548 74.4251 27.8213 74.4251 26.5464C74.4251 25.2715 73.4254 24.238 72.1923 24.238C70.9592 24.238 69.9595 25.2715 69.9595 26.5464Z" fill="#888888"/>
<path d="M46.7017 26.5464C46.7017 27.8213 47.7013 28.8548 48.9344 28.8548C50.1675 28.8548 51.1672 27.8213 51.1672 26.5464C51.1672 25.2715 50.1675 24.238 48.9344 24.238C47.7013 24.238 46.7017 25.2715 46.7017 26.5464Z" fill="#888888"/>
<path d="M23.4439 26.5464C23.4439 27.8213 24.4435 28.8548 25.6767 28.8548C26.9098 28.8548 27.9094 27.8213 27.9094 26.5464C27.9094 25.2715 26.9098 24.238 25.6767 24.238C24.4435 24.238 23.4439 25.2715 23.4439 26.5464Z" fill="#888888"/>
<path d="M3.2432e-06 26.5464C3.19093e-06 27.8213 0.999639 28.8548 2.23275 28.8548C3.46586 28.8548 4.4655 27.8213 4.4655 26.5464C4.4655 25.2715 3.46586 24.238 2.23275 24.238C0.999639 24.238 3.29548e-06 25.2715 3.2432e-06 26.5464Z" fill="#888888"/>
<path d="M93.2174 50.7847C93.2174 52.0596 94.217 53.0931 95.4501 53.0931C96.6832 53.0931 97.6828 52.0596 97.6828 50.7847C97.6828 49.5098 96.6832 48.4763 95.4501 48.4763C94.217 48.4763 93.2174 49.5098 93.2174 50.7847Z" fill="#888888"/>
<path d="M69.9595 50.7847C69.9595 52.0596 70.9592 53.0931 72.1923 53.0931C73.4254 53.0931 74.4251 52.0596 74.4251 50.7847C74.4251 49.5098 73.4254 48.4763 72.1923 48.4763C70.9592 48.4763 69.9595 49.5098 69.9595 50.7847Z" fill="#888888"/>
<path d="M46.7017 50.7847C46.7017 52.0596 47.7013 53.0931 48.9344 53.0931C50.1675 53.0931 51.1672 52.0596 51.1672 50.7847C51.1672 49.5098 50.1675 48.4763 48.9344 48.4763C47.7013 48.4763 46.7017 49.5098 46.7017 50.7847Z" fill="#888888"/>
<path d="M23.4439 50.7847C23.4439 52.0596 24.4435 53.0931 25.6767 53.0931C26.9098 53.0931 27.9094 52.0596 27.9094 50.7847C27.9094 49.5098 26.9098 48.4763 25.6767 48.4763C24.4435 48.4763 23.4439 49.5098 23.4439 50.7847Z" fill="#888888"/>
<path d="M3.2432e-06 50.7847C3.19093e-06 52.0596 0.999639 53.0931 2.23275 53.0931C3.46586 53.0931 4.4655 52.0596 4.4655 50.7847C4.4655 49.5098 3.46586 48.4763 2.23275 48.4763C0.999639 48.4763 3.29548e-06 49.5098 3.2432e-06 50.7847Z" fill="#888888"/>
<path d="M93.2174 75.0228C93.2174 76.2977 94.217 77.3312 95.4501 77.3312C96.6832 77.3312 97.6828 76.2977 97.6828 75.0228C97.6828 73.748 96.6832 72.7145 95.4501 72.7145C94.217 72.7145 93.2174 73.748 93.2174 75.0228Z" fill="#888888"/>
<path d="M69.9595 75.0228C69.9595 76.2977 70.9592 77.3312 72.1923 77.3312C73.4254 77.3312 74.4251 76.2977 74.4251 75.0228C74.4251 73.748 73.4254 72.7145 72.1923 72.7145C70.9592 72.7145 69.9595 73.748 69.9595 75.0228Z" fill="#888888"/>
<path d="M46.7017 75.0228C46.7017 76.2977 47.7014 77.3312 48.9345 77.3312C50.1676 77.3312 51.1672 76.2977 51.1672 75.0228C51.1672 73.748 50.1676 72.7145 48.9345 72.7145C47.7014 72.7145 46.7017 73.748 46.7017 75.0228Z" fill="#888888"/>
<path d="M23.4439 75.0228C23.4439 76.2977 24.4435 77.3312 25.6766 77.3312C26.9098 77.3312 27.9094 76.2977 27.9094 75.0228C27.9094 73.748 26.9098 72.7145 25.6766 72.7145C24.4435 72.7145 23.4439 73.748 23.4439 75.0228Z" fill="#888888"/>
<path d="M3.2432e-06 75.0228C3.19093e-06 76.2977 0.999639 77.3312 2.23275 77.3312C3.46586 77.3312 4.4655 76.2977 4.4655 75.0228C4.4655 73.748 3.46586 72.7145 2.23275 72.7145C0.999639 72.7145 3.29548e-06 73.748 3.2432e-06 75.0228Z" fill="#888888"/>
<path d="M93.2174 99.4533C93.2174 100.728 94.217 101.762 95.4501 101.762C96.6832 101.762 97.6828 100.728 97.6828 99.4533C97.6828 98.1784 96.6832 97.1449 95.4501 97.1449C94.217 97.1449 93.2174 98.1784 93.2174 99.4533Z" fill="#888888"/>
<path d="M69.9595 99.4533C69.9595 100.728 70.9592 101.762 72.1923 101.762C73.4254 101.762 74.4251 100.728 74.4251 99.4533C74.4251 98.1784 73.4254 97.1449 72.1923 97.1449C70.9592 97.1449 69.9595 98.1784 69.9595 99.4533Z" fill="#888888"/>
<path d="M46.7017 99.4533C46.7017 100.728 47.7014 101.762 48.9345 101.762C50.1676 101.762 51.1672 100.728 51.1672 99.4533C51.1672 98.1784 50.1676 97.1449 48.9345 97.1449C47.7014 97.1449 46.7017 98.1784 46.7017 99.4533Z" fill="#888888"/>
<path d="M23.4439 99.4533C23.4439 100.728 24.4435 101.762 25.6766 101.762C26.9098 101.762 27.9094 100.728 27.9094 99.4533C27.9094 98.1784 26.9098 97.1449 25.6766 97.1449C24.4435 97.1449 23.4439 98.1784 23.4439 99.4533Z" fill="#888888"/>
<path d="M3.2432e-06 99.4533C3.19093e-06 100.728 0.999639 101.762 2.23275 101.762C3.46586 101.762 4.4655 100.728 4.4655 99.4533C4.4655 98.1784 3.46586 97.1449 2.23275 97.1449C0.999639 97.1449 3.29548e-06 98.1784 3.2432e-06 99.4533Z" fill="#888888"/>
<path d="M93.2174 123.692C93.2174 124.967 94.217 126 95.4501 126C96.6832 126 97.6828 124.967 97.6828 123.692C97.6828 122.417 96.6832 121.383 95.4501 121.383C94.217 121.383 93.2174 122.417 93.2174 123.692Z" fill="#888888"/>
<path d="M69.9595 123.692C69.9595 124.967 70.9592 126 72.1923 126C73.4254 126 74.4251 124.967 74.4251 123.692C74.4251 122.417 73.4254 121.383 72.1923 121.383C70.9592 121.383 69.9595 122.417 69.9595 123.692Z" fill="#888888"/>
<path d="M46.7017 123.692C46.7017 124.967 47.7013 126 48.9344 126C50.1675 126 51.1672 124.967 51.1672 123.692C51.1672 122.417 50.1675 121.383 48.9344 121.383C47.7013 121.383 46.7017 122.417 46.7017 123.692Z" fill="#888888"/>
<path d="M23.4439 123.692C23.4439 124.967 24.4435 126 25.6766 126C26.9098 126 27.9094 124.967 27.9094 123.692C27.9094 122.417 26.9098 121.383 25.6766 121.383C24.4435 121.383 23.4439 122.417 23.4439 123.692Z" fill="#888888"/>
<path d="M3.2432e-06 123.692C3.19093e-06 124.967 0.999639 126 2.23275 126C3.46586 126 4.4655 124.967 4.4655 123.692C4.4655 122.417 3.46586 121.383 2.23275 121.383C0.999639 121.383 3.29548e-06 122.417 3.2432e-06 123.692Z" fill="#888888"/>
<path d="M93.2174 147.93C93.2174 149.204 94.217 150.238 95.4501 150.238C96.6832 150.238 97.6828 149.204 97.6828 147.93C97.6828 146.655 96.6832 145.621 95.4501 145.621C94.217 145.621 93.2174 146.655 93.2174 147.93Z" fill="#888888"/>
<path d="M69.9595 147.93C69.9595 149.204 70.9592 150.238 72.1923 150.238C73.4254 150.238 74.4251 149.204 74.4251 147.93C74.4251 146.655 73.4254 145.621 72.1923 145.621C70.9592 145.621 69.9595 146.655 69.9595 147.93Z" fill="#888888"/>
<path d="M46.7017 147.93C46.7017 149.204 47.7013 150.238 48.9344 150.238C50.1675 150.238 51.1672 149.204 51.1672 147.93C51.1672 146.655 50.1675 145.621 48.9344 145.621C47.7013 145.621 46.7017 146.655 46.7017 147.93Z" fill="#888888"/>
<path d="M23.4439 147.93C23.4439 149.204 24.4435 150.238 25.6766 150.238C26.9098 150.238 27.9094 149.204 27.9094 147.93C27.9094 146.655 26.9098 145.621 25.6766 145.621C24.4435 145.621 23.4439 146.655 23.4439 147.93Z" fill="#888888"/>
<path d="M3.2432e-06 147.93C3.19093e-06 149.204 0.999639 150.238 2.23275 150.238C3.46586 150.238 4.4655 149.204 4.4655 147.93C4.4655 146.655 3.46586 145.621 2.23275 145.621C0.999639 145.621 3.29548e-06 146.655 3.2432e-06 147.93Z" fill="#888888"/>
<path d="M93.2174 172.168C93.2174 173.443 94.217 174.476 95.4501 174.476C96.6832 174.476 97.6828 173.443 97.6828 172.168C97.6828 170.893 96.6832 169.859 95.4501 169.859C94.217 169.859 93.2174 170.893 93.2174 172.168Z" fill="#888888"/>
<path d="M69.9595 172.168C69.9595 173.443 70.9592 174.476 72.1923 174.476C73.4254 174.476 74.4251 173.443 74.4251 172.168C74.4251 170.893 73.4254 169.859 72.1923 169.859C70.9592 169.859 69.9595 170.893 69.9595 172.168Z" fill="#888888"/>
<path d="M46.7017 172.168C46.7017 173.443 47.7014 174.476 48.9345 174.476C50.1676 174.476 51.1672 173.443 51.1672 172.168C51.1672 170.893 50.1676 169.859 48.9345 169.859C47.7014 169.859 46.7017 170.893 46.7017 172.168Z" fill="#888888"/>
<path d="M23.4439 172.168C23.4439 173.443 24.4435 174.476 25.6766 174.476C26.9098 174.476 27.9094 173.443 27.9094 172.168C27.9094 170.893 26.9098 169.859 25.6766 169.859C24.4435 169.859 23.4439 170.893 23.4439 172.168Z" fill="#888888"/>
<path d="M1.8502e-05 172.168C1.84497e-05 173.443 0.999654 174.476 2.23277 174.476C3.46588 174.476 4.46551 173.443 4.46552 172.168C4.46552 170.893 3.46588 169.859 2.23277 169.859C0.999654 169.859 1.85543e-05 170.893 1.8502e-05 172.168Z" fill="#888888"/>
</svg>
