<?xml version="1.0" encoding="utf-8"?><svg viewBox="0 0 1063 570" xmlns="http://www.w3.org/2000/svg" xmlns:xlink="http://www.w3.org/1999/xlink"><style>:root>svg{display:none}:root>svg:target{display:block}</style><svg fill="none" viewBox="0 0 19 19" id="cross" xmlns="http://www.w3.org/2000/svg"><path d="M17.277 19l-7.77-7.778L1.734 19 0 17.266 7.783 9.5 0 1.734 1.735 0l7.771 7.778L17.277.012 19 1.734 11.229 9.5 19 17.266 17.277 19z" fill="#C94D35"/></svg><svg viewBox="0 0 174 80" fill="none" id="dots-grey" xmlns="http://www.w3.org/2000/svg"><path d="M162.991 2.308c0 1.275.999 2.309 2.232 2.309 1.234 0 2.233-1.034 2.233-2.309 0-1.275-.999-2.308-2.233-2.308-1.233 0-2.232 1.033-2.232 2.308zM139.733 2.308c0 1.275 1 2.309 2.233 2.309s2.232-1.034 2.232-2.309c0-1.275-.999-2.308-2.232-2.308s-2.233 1.033-2.233 2.308zM116.475 2.308c0 1.275 1 2.309 2.233 2.309s2.233-1.034 2.233-2.309c0-1.275-1-2.308-2.233-2.308s-2.233 1.033-2.233 2.308zM93.217 2.308c0 1.275 1 2.309 2.233 2.309s2.233-1.034 2.233-2.309c0-1.275-1-2.308-2.233-2.308s-2.233 1.033-2.233 2.308zM69.773 2.308c0 1.275 1 2.309 2.233 2.309s2.233-1.034 2.233-2.309c0-1.275-1-2.308-2.233-2.308s-2.233 1.033-2.233 2.308zM46.516 2.308c0 1.275 1 2.309 2.232 2.309 1.233 0 2.233-1.034 2.233-2.309 0-1.275-1-2.308-2.233-2.308s-2.232 1.033-2.232 2.308zM23.258 2.308c0 1.275 1 2.309 2.233 2.309s2.232-1.034 2.232-2.309c0-1.275-1-2.308-2.232-2.308-1.234 0-2.233 1.033-2.233 2.308zM0 2.308c0 1.275 1 2.309 2.233 2.309s2.232-1.034 2.232-2.309c0-1.275-1-2.308-2.232-2.308C1 0 0 1.033 0 2.308zM162.991 26.547c0 1.274.999 2.308 2.232 2.308 1.234 0 2.233-1.034 2.233-2.308 0-1.275-.999-2.309-2.233-2.309-1.233 0-2.232 1.034-2.232 2.309zM139.733 26.547c0 1.274 1 2.308 2.233 2.308s2.232-1.034 2.232-2.308c0-1.275-.999-2.309-2.232-2.309s-2.233 1.034-2.233 2.309zM116.475 26.547c0 1.274 1 2.308 2.233 2.308s2.233-1.034 2.233-2.308c0-1.275-1-2.309-2.233-2.309s-2.233 1.034-2.233 2.309zM93.217 26.547c0 1.274 1 2.308 2.233 2.308s2.233-1.034 2.233-2.308c0-1.275-1-2.309-2.233-2.309s-2.233 1.034-2.233 2.309zM69.773 26.547c0 1.274 1 2.308 2.233 2.308s2.233-1.034 2.233-2.308c0-1.275-1-2.309-2.233-2.309s-2.233 1.034-2.233 2.309zM46.516 26.547c0 1.274 1 2.308 2.232 2.308 1.233 0 2.233-1.034 2.233-2.308 0-1.275-1-2.309-2.233-2.309s-2.232 1.034-2.232 2.309zM23.258 26.547c0 1.274 1 2.308 2.233 2.308s2.232-1.034 2.232-2.308c0-1.275-1-2.309-2.232-2.309-1.234 0-2.233 1.034-2.233 2.309zM0 26.547c0 1.274 1 2.308 2.233 2.308s2.232-1.034 2.232-2.308c0-1.275-1-2.309-2.232-2.309C1 24.238 0 25.272 0 26.547zM162.991 50.785c0 1.275.999 2.308 2.232 2.308 1.234 0 2.233-1.033 2.233-2.308s-.999-2.309-2.233-2.309c-1.233 0-2.232 1.034-2.232 2.309zM139.733 50.785c0 1.275 1 2.308 2.233 2.308s2.232-1.033 2.232-2.308-.999-2.309-2.232-2.309-2.233 1.034-2.233 2.309zM116.475 50.785c0 1.275 1 2.308 2.233 2.308s2.233-1.033 2.233-2.308-1-2.309-2.233-2.309-2.233 1.034-2.233 2.309zM93.217 50.785c0 1.275 1 2.308 2.233 2.308s2.233-1.033 2.233-2.308-1-2.309-2.233-2.309-2.233 1.034-2.233 2.309zM69.773 50.785c0 1.275 1 2.308 2.233 2.308s2.233-1.033 2.233-2.308-1-2.309-2.233-2.309-2.233 1.034-2.233 2.309zM46.516 50.785c0 1.275 1 2.308 2.232 2.308 1.233 0 2.233-1.033 2.233-2.308s-1-2.309-2.233-2.309-2.232 1.034-2.232 2.309zM23.258 50.785c0 1.275 1 2.308 2.233 2.308s2.232-1.033 2.232-2.308-1-2.309-2.232-2.309c-1.234 0-2.233 1.034-2.233 2.309zM0 50.785c0 1.275 1 2.308 2.233 2.308s2.232-1.033 2.232-2.308-1-2.309-2.232-2.309C1 48.476 0 49.51 0 50.785zM162.991 75.023c0 1.275.999 2.308 2.232 2.308 1.234 0 2.233-1.033 2.233-2.308s-.999-2.308-2.233-2.308c-1.233 0-2.232 1.033-2.232 2.308zM139.733 75.023c0 1.275 1 2.308 2.233 2.308s2.232-1.033 2.232-2.308-.999-2.308-2.232-2.308-2.233 1.033-2.233 2.308zM116.475 75.023c0 1.275 1 2.308 2.233 2.308s2.233-1.033 2.233-2.308-1-2.308-2.233-2.308-2.233 1.033-2.233 2.308zM93.217 75.023c0 1.275 1 2.308 2.233 2.308s2.233-1.033 2.233-2.308-1-2.308-2.233-2.308-2.233 1.033-2.233 2.308zM69.773 75.023c0 1.275 1 2.308 2.233 2.308s2.233-1.033 2.233-2.308-1-2.308-2.233-2.308-2.233 1.033-2.233 2.308zM46.516 75.023c0 1.275 1 2.308 2.232 2.308 1.233 0 2.233-1.033 2.233-2.308s-1-2.308-2.233-2.308-2.232 1.033-2.232 2.308zM23.258 75.023c0 1.275 1 2.308 2.233 2.308s2.232-1.033 2.232-2.308-1-2.308-2.232-2.308c-1.234 0-2.233 1.033-2.233 2.308zM0 75.023c0 1.275 1 2.308 2.233 2.308s2.232-1.033 2.232-2.308-1-2.308-2.232-2.308C1 72.715 0 73.748 0 75.023zM162.991 99.453c0 1.275.999 2.309 2.232 2.309 1.234 0 2.233-1.034 2.233-2.309 0-1.275-.999-2.308-2.233-2.308-1.233 0-2.232 1.033-2.232 2.308zM139.733 99.453c0 1.275 1 2.309 2.233 2.309s2.232-1.034 2.232-2.309c0-1.275-.999-2.308-2.232-2.308s-2.233 1.033-2.233 2.308zM116.475 99.453c0 1.275 1 2.309 2.233 2.309s2.233-1.034 2.233-2.309c0-1.275-1-2.308-2.233-2.308s-2.233 1.033-2.233 2.308zM93.217 99.453c0 1.275 1 2.309 2.233 2.309s2.233-1.034 2.233-2.309c0-1.275-1-2.308-2.233-2.308s-2.233 1.033-2.233 2.308zM69.773 99.453c0 1.275 1 2.309 2.233 2.309s2.233-1.034 2.233-2.309c0-1.275-1-2.308-2.233-2.308s-2.233 1.033-2.233 2.308zM46.516 99.453c0 1.275 1 2.309 2.232 2.309 1.233 0 2.233-1.034 2.233-2.309 0-1.275-1-2.308-2.233-2.308s-2.232 1.034-2.232 2.308zM23.258 99.453c0 1.275 1 2.309 2.233 2.309s2.232-1.034 2.232-2.309c0-1.275-1-2.308-2.232-2.308-1.234 0-2.233 1.034-2.233 2.308zM0 99.453c0 1.275 1 2.309 2.233 2.309s2.232-1.034 2.232-2.309c0-1.275-1-2.308-2.232-2.308C1 97.145 0 98.179 0 99.453zM162.991 123.692c0 1.274.999 2.308 2.232 2.308 1.234 0 2.233-1.034 2.233-2.308 0-1.275-.999-2.309-2.233-2.309-1.233 0-2.232 1.034-2.232 2.309zM139.733 123.692c0 1.274 1 2.308 2.233 2.308s2.232-1.034 2.232-2.308c0-1.275-.999-2.309-2.232-2.309s-2.233 1.034-2.233 2.309zM116.475 123.692c0 1.274 1 2.308 2.233 2.308s2.233-1.034 2.233-2.308c0-1.275-1-2.309-2.233-2.309s-2.233 1.034-2.233 2.309zM93.217 123.692c0 1.274 1 2.308 2.233 2.308s2.233-1.034 2.233-2.308c0-1.275-1-2.309-2.233-2.309s-2.233 1.034-2.233 2.309zM69.773 123.692c0 1.274 1 2.308 2.233 2.308s2.233-1.034 2.233-2.308c0-1.275-1-2.309-2.233-2.309s-2.233 1.034-2.233 2.309zM46.516 123.692c0 1.274 1 2.308 2.232 2.308 1.233 0 2.233-1.034 2.233-2.308 0-1.275-1-2.309-2.233-2.309s-2.232 1.034-2.232 2.309zM23.258 123.692c0 1.274 1 2.308 2.233 2.308s2.232-1.034 2.232-2.308c0-1.275-1-2.309-2.232-2.309-1.234 0-2.233 1.034-2.233 2.309zM0 123.692C0 124.966 1 126 2.233 126s2.232-1.034 2.232-2.308c0-1.275-1-2.309-2.232-2.309C1 121.383 0 122.417 0 123.692zM162.991 147.93c0 1.274.999 2.308 2.232 2.308 1.234 0 2.233-1.034 2.233-2.308 0-1.275-.999-2.309-2.233-2.309-1.233 0-2.232 1.034-2.232 2.309zM139.733 147.93c0 1.274 1 2.308 2.233 2.308s2.232-1.034 2.232-2.308c0-1.275-.999-2.309-2.232-2.309s-2.233 1.034-2.233 2.309zM116.475 147.93c0 1.274 1 2.308 2.233 2.308s2.233-1.034 2.233-2.308c0-1.275-1-2.309-2.233-2.309s-2.233 1.034-2.233 2.309zM93.217 147.93c0 1.274 1 2.308 2.233 2.308s2.233-1.034 2.233-2.308c0-1.275-1-2.309-2.233-2.309s-2.233 1.034-2.233 2.309zM69.773 147.93c0 1.274 1 2.308 2.233 2.308s2.233-1.034 2.233-2.308c0-1.275-1-2.309-2.233-2.309s-2.233 1.034-2.233 2.309zM46.516 147.93c0 1.274 1 2.308 2.232 2.308 1.233 0 2.233-1.034 2.233-2.308 0-1.275-1-2.309-2.233-2.309s-2.232 1.034-2.232 2.309zM23.258 147.93c0 1.274 1 2.308 2.233 2.308s2.232-1.034 2.232-2.308c0-1.275-1-2.309-2.232-2.309-1.234 0-2.233 1.034-2.233 2.309zM0 147.93c0 1.274 1 2.308 2.233 2.308s2.232-1.034 2.232-2.308c0-1.275-1-2.309-2.232-2.309C1 145.621 0 146.655 0 147.93zM162.991 172.168c0 1.275.999 2.308 2.232 2.308 1.234 0 2.233-1.033 2.233-2.308s-.999-2.309-2.233-2.309c-1.233 0-2.232 1.034-2.232 2.309zM139.733 172.168c0 1.275 1 2.308 2.233 2.308s2.232-1.033 2.232-2.308-.999-2.309-2.232-2.309-2.233 1.034-2.233 2.309zM116.475 172.168c0 1.275 1 2.308 2.233 2.308s2.233-1.033 2.233-2.308-1-2.309-2.233-2.309-2.233 1.034-2.233 2.309zM93.217 172.168c0 1.275 1 2.308 2.233 2.308s2.233-1.033 2.233-2.308-1-2.309-2.233-2.309-2.233 1.034-2.233 2.309zM69.773 172.168c0 1.275 1 2.308 2.233 2.308s2.233-1.033 2.233-2.308-1-2.309-2.233-2.309-2.233 1.034-2.233 2.309zM46.516 172.168c0 1.275 1 2.308 2.232 2.308 1.233 0 2.233-1.033 2.233-2.308s-1-2.309-2.233-2.309-2.232 1.034-2.232 2.309zM23.258 172.168c0 1.275 1 2.308 2.233 2.308s2.232-1.033 2.232-2.308-1-2.309-2.232-2.309c-1.234 0-2.233 1.034-2.233 2.309zM0 172.168c0 1.275 1 2.308 2.233 2.308s2.232-1.033 2.232-2.308-1-2.309-2.232-2.309C1 169.859 0 170.893 0 172.168z" fill="#888"/></svg><svg viewBox="0 0 98 40" fill="none" id="dots-grey-news" xmlns="http://www.w3.org/2000/svg"><path d="M93.217 2.308c0 1.275 1 2.309 2.233 2.309s2.233-1.034 2.233-2.309c0-1.275-1-2.308-2.233-2.308s-2.233 1.033-2.233 2.308zM69.96 2.308c0 1.275 1 2.309 2.232 2.309 1.233 0 2.233-1.034 2.233-2.309 0-1.275-1-2.308-2.233-2.308S69.96 1.033 69.96 2.308zM46.702 2.308c0 1.275 1 2.309 2.232 2.309 1.233 0 2.233-1.034 2.233-2.309 0-1.275-1-2.308-2.233-2.308s-2.232 1.033-2.232 2.308zM23.444 2.308c0 1.275 1 2.309 2.233 2.309s2.232-1.034 2.232-2.309c0-1.275-1-2.308-2.232-2.308-1.233 0-2.233 1.033-2.233 2.308zM0 2.308c0 1.275 1 2.309 2.233 2.309s2.232-1.034 2.232-2.309c0-1.275-1-2.308-2.232-2.308C1 0 0 1.033 0 2.308zM93.217 26.546c0 1.275 1 2.309 2.233 2.309s2.233-1.034 2.233-2.309c0-1.274-1-2.308-2.233-2.308s-2.233 1.034-2.233 2.308zM69.96 26.546c0 1.275 1 2.309 2.232 2.309 1.233 0 2.233-1.034 2.233-2.309 0-1.274-1-2.308-2.233-2.308s-2.232 1.034-2.232 2.308zM46.702 26.546c0 1.275 1 2.309 2.232 2.309 1.233 0 2.233-1.034 2.233-2.309 0-1.274-1-2.308-2.233-2.308s-2.232 1.034-2.232 2.308zM23.444 26.546c0 1.275 1 2.309 2.233 2.309s2.232-1.034 2.232-2.309c0-1.274-1-2.308-2.232-2.308-1.233 0-2.233 1.034-2.233 2.308zM0 26.546c0 1.275 1 2.309 2.233 2.309s2.232-1.034 2.232-2.309c0-1.274-1-2.308-2.232-2.308C1 24.238 0 25.272 0 26.546zM93.217 50.785c0 1.275 1 2.308 2.233 2.308s2.233-1.033 2.233-2.308-1-2.309-2.233-2.309-2.233 1.034-2.233 2.309zM69.96 50.785c0 1.275 1 2.308 2.232 2.308 1.233 0 2.233-1.033 2.233-2.308s-1-2.309-2.233-2.309-2.232 1.034-2.232 2.309zM46.702 50.785c0 1.275 1 2.308 2.232 2.308 1.233 0 2.233-1.033 2.233-2.308s-1-2.309-2.233-2.309-2.232 1.034-2.232 2.309zM23.444 50.785c0 1.275 1 2.308 2.233 2.308s2.232-1.033 2.232-2.308-1-2.309-2.232-2.309c-1.233 0-2.233 1.034-2.233 2.309zM0 50.785c0 1.275 1 2.308 2.233 2.308s2.232-1.033 2.232-2.308-1-2.309-2.232-2.309C1 48.476 0 49.51 0 50.785zM93.217 75.023c0 1.275 1 2.308 2.233 2.308s2.233-1.033 2.233-2.308-1-2.308-2.233-2.308-2.233 1.033-2.233 2.308zM69.96 75.023c0 1.275 1 2.308 2.232 2.308 1.233 0 2.233-1.033 2.233-2.308s-1-2.308-2.233-2.308-2.232 1.033-2.232 2.308zM46.702 75.023c0 1.275 1 2.308 2.233 2.308s2.232-1.033 2.232-2.308-1-2.308-2.233-2.308-2.232 1.033-2.232 2.308zM23.444 75.023c0 1.275 1 2.308 2.233 2.308s2.232-1.033 2.232-2.308-1-2.308-2.232-2.308c-1.233 0-2.233 1.033-2.233 2.308zM0 75.023c0 1.275 1 2.308 2.233 2.308s2.232-1.033 2.232-2.308-1-2.308-2.232-2.308C1 72.715 0 73.748 0 75.023zM93.217 99.453c0 1.275 1 2.309 2.233 2.309s2.233-1.034 2.233-2.309c0-1.275-1-2.308-2.233-2.308s-2.233 1.033-2.233 2.308zM69.96 99.453c0 1.275 1 2.309 2.232 2.309 1.233 0 2.233-1.034 2.233-2.309 0-1.275-1-2.308-2.233-2.308s-2.232 1.033-2.232 2.308zM46.702 99.453c0 1.275 1 2.309 2.233 2.309s2.232-1.034 2.232-2.309c0-1.275-1-2.308-2.233-2.308s-2.232 1.033-2.232 2.308zM23.444 99.453c0 1.275 1 2.309 2.233 2.309s2.232-1.034 2.232-2.309c0-1.275-1-2.308-2.232-2.308-1.233 0-2.233 1.033-2.233 2.308zM0 99.453c0 1.275 1 2.309 2.233 2.309s2.232-1.034 2.232-2.309c0-1.275-1-2.308-2.232-2.308C1 97.145 0 98.178 0 99.453zM93.217 123.692c0 1.275 1 2.308 2.233 2.308s2.233-1.033 2.233-2.308-1-2.309-2.233-2.309-2.233 1.034-2.233 2.309zM69.96 123.692c0 1.275 1 2.308 2.232 2.308 1.233 0 2.233-1.033 2.233-2.308s-1-2.309-2.233-2.309-2.232 1.034-2.232 2.309zM46.702 123.692c0 1.275 1 2.308 2.232 2.308 1.233 0 2.233-1.033 2.233-2.308s-1-2.309-2.233-2.309-2.232 1.034-2.232 2.309zM23.444 123.692c0 1.275 1 2.308 2.233 2.308s2.232-1.033 2.232-2.308-1-2.309-2.232-2.309c-1.233 0-2.233 1.034-2.233 2.309zM0 123.692C0 124.967 1 126 2.233 126s2.232-1.033 2.232-2.308-1-2.309-2.232-2.309C1 121.383 0 122.417 0 123.692zM93.217 147.93c0 1.274 1 2.308 2.233 2.308s2.233-1.034 2.233-2.308c0-1.275-1-2.309-2.233-2.309s-2.233 1.034-2.233 2.309zM69.96 147.93c0 1.274 1 2.308 2.232 2.308 1.233 0 2.233-1.034 2.233-2.308 0-1.275-1-2.309-2.233-2.309s-2.232 1.034-2.232 2.309zM46.702 147.93c0 1.274 1 2.308 2.232 2.308 1.233 0 2.233-1.034 2.233-2.308 0-1.275-1-2.309-2.233-2.309s-2.232 1.034-2.232 2.309zM23.444 147.93c0 1.274 1 2.308 2.233 2.308s2.232-1.034 2.232-2.308c0-1.275-1-2.309-2.232-2.309-1.233 0-2.233 1.034-2.233 2.309zM0 147.93c0 1.274 1 2.308 2.233 2.308s2.232-1.034 2.232-2.308c0-1.275-1-2.309-2.232-2.309C1 145.621 0 146.655 0 147.93zM93.217 172.168c0 1.275 1 2.308 2.233 2.308s2.233-1.033 2.233-2.308-1-2.309-2.233-2.309-2.233 1.034-2.233 2.309zM69.96 172.168c0 1.275 1 2.308 2.232 2.308 1.233 0 2.233-1.033 2.233-2.308s-1-2.309-2.233-2.309-2.232 1.034-2.232 2.309zM46.702 172.168c0 1.275 1 2.308 2.233 2.308s2.232-1.033 2.232-2.308-1-2.309-2.233-2.309-2.232 1.034-2.232 2.309zM23.444 172.168c0 1.275 1 2.308 2.233 2.308s2.232-1.033 2.232-2.308-1-2.309-2.232-2.309c-1.233 0-2.233 1.034-2.233 2.309zM0 172.168c0 1.275 1 2.308 2.233 2.308s2.233-1.033 2.233-2.308-1-2.309-2.233-2.309S0 170.893 0 172.168z" fill="#888"/></svg><svg viewBox="0 0 137 90" fill="none" id="dots-red" xmlns="http://www.w3.org/2000/svg"><path d="M128.159 4.24c0 2.342 1.836 4.24 4.101 4.24 2.265 0 4.101-1.898 4.101-4.24 0-2.342-1.836-4.24-4.101-4.24-2.265 0-4.101 1.898-4.101 4.24zM85.44 4.24c0 2.342 1.835 4.24 4.1 4.24 2.265 0 4.102-1.898 4.102-4.24 0-2.342-1.837-4.24-4.102-4.24-2.265 0-4.1 1.898-4.1 4.24zM42.72 4.24c0 2.342 1.836 4.24 4.1 4.24 2.266 0 4.102-1.898 4.102-4.24 0-2.342-1.836-4.24-4.101-4.24-2.265 0-4.101 1.898-4.101 4.24zM0 4.24c0 2.342 1.836 4.24 4.101 4.24 2.265 0 4.101-1.898 4.101-4.24 0-2.342-1.836-4.24-4.1-4.24C1.835 0 0 1.898 0 4.24zM128.159 48.76c0 2.342 1.836 4.24 4.101 4.24 2.265 0 4.101-1.898 4.101-4.24 0-2.341-1.836-4.24-4.101-4.24-2.265 0-4.101 1.899-4.101 4.24zM85.44 48.76c0 2.342 1.835 4.24 4.1 4.24 2.265 0 4.102-1.898 4.102-4.24 0-2.341-1.837-4.24-4.102-4.24-2.265 0-4.1 1.899-4.1 4.24zM42.72 48.76c0 2.342 1.836 4.24 4.1 4.24 2.266 0 4.102-1.898 4.102-4.24 0-2.341-1.836-4.24-4.101-4.24-2.265 0-4.101 1.899-4.101 4.24zM0 48.76C0 51.102 1.836 53 4.101 53c2.265 0 4.101-1.898 4.101-4.24 0-2.341-1.836-4.24-4.1-4.24C1.835 44.52 0 46.42 0 48.76zM128.159 93.28c0 2.342 1.836 4.24 4.101 4.24 2.265 0 4.101-1.898 4.101-4.24 0-2.34-1.836-4.24-4.101-4.24-2.265 0-4.101 1.9-4.101 4.24zM85.44 93.28c0 2.342 1.835 4.24 4.1 4.24 2.265 0 4.102-1.898 4.102-4.24 0-2.34-1.837-4.24-4.102-4.24-2.265 0-4.1 1.9-4.1 4.24zM42.72 93.28c0 2.342 1.836 4.24 4.1 4.24 2.266 0 4.102-1.898 4.102-4.24 0-2.34-1.836-4.24-4.101-4.24-2.265 0-4.101 1.9-4.101 4.24zM0 93.28c0 2.342 1.836 4.24 4.101 4.24 2.265 0 4.101-1.898 4.101-4.24 0-2.34-1.836-4.24-4.1-4.24C1.835 89.04 0 90.94 0 93.28zM128.159 137.801c0 2.342 1.836 4.24 4.101 4.24 2.265 0 4.101-1.898 4.101-4.24 0-2.341-1.836-4.24-4.101-4.24-2.265 0-4.101 1.899-4.101 4.24zM85.44 137.801c0 2.342 1.835 4.24 4.1 4.24 2.265 0 4.102-1.898 4.102-4.24 0-2.341-1.837-4.24-4.102-4.24-2.265 0-4.1 1.899-4.1 4.24zM42.72 137.801c0 2.342 1.836 4.24 4.1 4.24 2.266 0 4.102-1.898 4.102-4.24 0-2.341-1.836-4.24-4.101-4.24-2.265 0-4.101 1.899-4.101 4.24zM0 137.801c0 2.342 1.836 4.24 4.101 4.24 2.265 0 4.101-1.898 4.101-4.24 0-2.341-1.836-4.24-4.1-4.24-2.266 0-4.102 1.899-4.102 4.24zM128.159 182.675c0 2.341 1.836 4.24 4.101 4.24 2.265 0 4.101-1.899 4.101-4.24 0-2.342-1.836-4.24-4.101-4.24-2.265 0-4.101 1.898-4.101 4.24zM85.44 182.675c0 2.341 1.835 4.24 4.1 4.24 2.265 0 4.102-1.899 4.102-4.24 0-2.342-1.837-4.24-4.102-4.24-2.265 0-4.1 1.898-4.1 4.24zM42.72 182.675c0 2.341 1.836 4.24 4.1 4.24 2.266 0 4.102-1.899 4.102-4.24 0-2.342-1.836-4.24-4.101-4.24-2.265 0-4.101 1.898-4.101 4.24zM0 182.675c0 2.341 1.836 4.24 4.101 4.24 2.265 0 4.101-1.899 4.101-4.24 0-2.342-1.836-4.24-4.1-4.24-2.266 0-4.102 1.898-4.102 4.24zM128.159 227.195c0 2.342 1.836 4.241 4.101 4.241 2.265 0 4.101-1.899 4.101-4.241 0-2.341-1.836-4.24-4.101-4.24-2.265 0-4.101 1.899-4.101 4.24zM85.44 227.195c0 2.342 1.835 4.241 4.1 4.241 2.265 0 4.102-1.899 4.102-4.241 0-2.341-1.837-4.24-4.102-4.24-2.265 0-4.1 1.899-4.1 4.24zM42.72 227.195c0 2.342 1.836 4.241 4.1 4.241 2.266 0 4.102-1.899 4.102-4.241 0-2.341-1.836-4.24-4.101-4.24-2.265 0-4.101 1.899-4.101 4.24zM0 227.195c0 2.342 1.836 4.241 4.101 4.241 2.265 0 4.101-1.899 4.101-4.241 0-2.341-1.836-4.24-4.1-4.24-2.266 0-4.102 1.899-4.102 4.24zM128.159 271.715c0 2.342 1.836 4.241 4.101 4.241 2.265 0 4.101-1.899 4.101-4.241 0-2.341-1.836-4.24-4.101-4.24-2.265 0-4.101 1.899-4.101 4.24zM85.44 271.715c0 2.342 1.835 4.241 4.1 4.241 2.265 0 4.102-1.899 4.102-4.241 0-2.341-1.837-4.24-4.102-4.24-2.265 0-4.1 1.899-4.1 4.24zM42.72 271.715c0 2.342 1.836 4.241 4.1 4.241 2.266 0 4.102-1.899 4.102-4.241 0-2.341-1.836-4.24-4.101-4.24-2.265 0-4.101 1.899-4.101 4.24zM0 271.715c0 2.342 1.836 4.241 4.101 4.241 2.265 0 4.101-1.899 4.101-4.241 0-2.341-1.836-4.24-4.1-4.24-2.266 0-4.102 1.899-4.102 4.24zM128.159 316.236c0 2.342 1.836 4.24 4.101 4.24 2.265 0 4.101-1.898 4.101-4.24 0-2.342-1.836-4.24-4.101-4.24-2.265 0-4.101 1.898-4.101 4.24zM85.44 316.236c0 2.342 1.835 4.24 4.1 4.24 2.265 0 4.102-1.898 4.102-4.24 0-2.342-1.837-4.24-4.102-4.24-2.265 0-4.1 1.898-4.1 4.24zM42.72 316.236c0 2.342 1.836 4.24 4.1 4.24 2.266 0 4.102-1.898 4.102-4.24 0-2.342-1.836-4.24-4.101-4.24-2.265 0-4.101 1.898-4.101 4.24zM0 316.236c0 2.342 1.836 4.24 4.101 4.24 2.265 0 4.101-1.898 4.101-4.24 0-2.342-1.836-4.24-4.1-4.24-2.266 0-4.102 1.898-4.102 4.24z" fill="#C94D35"/></svg><svg fill="none" viewBox="0 0 10 18" id="next" xmlns="http://www.w3.org/2000/svg"><path d="M6.64 8.996L.272 15.73a1.005 1.005 0 00-.272.696c0 .264.096.511.272.697l.558.59a.899.899 0 001.317 0l7.581-8.018c.176-.186.273-.434.272-.698 0-.266-.095-.514-.272-.7L2.154.287a.899.899 0 00-1.317 0l-.558.59a1.026 1.026 0 000 1.393l6.36 6.726z" fill="#000"/></svg><svg fill="none" viewBox="0 0 10 18" id="prev" xmlns="http://www.w3.org/2000/svg"><path d="M3.36 9.004L9.728 2.27c.176-.185.272-.433.272-.696 0-.264-.096-.511-.272-.697L9.17.287a.899.899 0 00-1.317 0L.272 8.306A1.006 1.006 0 000 9.003c0 .266.095.514.272.7l7.574 8.01a.899.899 0 001.317 0l.558-.59a1.026 1.026 0 000-1.393l-6.36-6.726z" fill="#000"/></svg><svg fill="none" viewBox="0 0 1063 570" id="vector" xmlns="http://www.w3.org/2000/svg"><path d="M87.637 122.425C235.241 456.052 434.053 553.146 459 569.084h604v-360.5c-496 86-698.309 5.271-939.695-124.327l44.651-47.782L0 0l43.096 169.563 44.541-47.138z" fill="#C94D35"/></svg></svg>